<?xml version="1.0" encoding="UTF-8"?>
<svg version="1.1" viewBox="0 0 1200 1200" width="1280" height="1280" xmlns="http://www.w3.org/2000/svg">
<path transform="translate(820,256)" d="m0 0 4 2 8 12 11 15 10 15 15 24 12 22 19 38 11 27 8 22 1 9 3 4 2 10 3 9 1 7 3 10v8l4 12v12l3 10v70l-3 13v11l-2 9-2 3v8l-3 10-2 10-9 26-5 12-7 16-10 19-9 15-11 16-6 7-8 10-26 26-10 7-10 8-11 7-20 12-14 8-23 11-10 4-27 12-28 11-42 17-25 11-19 9-18 10-16 10-11 7-7 6-11 8-10 10-8 7-7 7-1 2h-2l-2 4-7 7-8 12-6 8-8 15-4 11-2-1 3-17 2-6v-12l4-8v-4-7l3-7 2-5-1-5 5-9-1-6 3-4h2l-1-8 4-9 3-10 4-9 1-5 4-8 2-6 2-3 3-9 7-16 10-19 11-21 6-9 11-18 7-10 7-11 6-7 8-11 7-7 6-9 9-10 48-48 14-11 12-10 9-6 6-5 10-7 7-6 9-6 7-6 9-6 9-8 11-8 11-10 9-7 10-9 9-9 10-13 9-11 8-12 11-19 4-8 5-13 3-10 2-3v-8l3-6v-43l-1-3h-2l-2 6-4 20v10l-6 22-8 17-9 16-10 12-7 9-26 26-9 6-7 7-11 9-6 4-10 8-6 4-10 8-6 4-3 3h-2v2l-10 6-9 8-8 5-10 8-6 4-11 10-9 6-12 11-11 8-7 7-8 7-8 8-8 7-29 29-7 8-8 8-7 8-5 6-7 9-8 9-4 7-7 10-7 11-6 9-6 12-10 19-4 8-1 5h-3l-2-7-1-4-3-5v-6l-4-7v-9l-3-3-1-7v-6l-2-1-2-5v-9l-3-8-1-10v-6l-3-10-1-10v-37l2-14 2-9v-7l3-8 1-4 1-7 6-17 5-10 2-5 4-8 7-11 7-10 21-24 10-9 8-7 9-8 6-2v-2l10-8 11-7 15-10 14-8 16-9 22-12 12-6 16-9 14-8 11-6 14-8 14-9 12-8 14-10 13-10 10-9 20-20 12-16 10-15 10-19 6-14 5-16 4-16v-45l-4-7z" fill="#A1B40B"/>
<path transform="translate(409,80)" d="m0 0h2l-2 5-4 8-4 12-4 16v45l5 23 8 24 8 18 8 14 11 16 20 25 9 10 6 5 6 7 6 5 6 7 6 5v2l4 2 9 8 10 8 14 13 12 9 7 6v2l4 2 8 7 10 8 6 5 4 4v2l4 2v2l4 2v2l4 2v2l4 2v2l4 2v2l4 2 6 7 5 5 8 9 9 12-1 5-16 8-28 15-16 9-12 6-23 14-9 6-16 11-8 7h-3l-9-11-7-9-11-13-6-8-9-10-9-12-10-11-7-9-12-14-11-14-10-13-11-15-12-17-13-21-11-22-7-21-5-28v-32l1-6-1-3h-3l-1 10-3 10-2 19v15l2 22 5 20 8 22 8 18 8 14 14 21 11 15 9 11 6 8 13 14 9 12 8 8 7 8 13 16 10 11 8 11 8 10 4 6 1 4-25 25-8 12-6 8-11 19-8 19-5 16-3 8-2 14-2 8-1 44-5-1-33-22-13-9-12-9-10-8-8-6-11-10-11-9-19-19-18-22-9-13-10-16-9-17-9-23-8-24-7-29-4-30v-62l3-16 1-13 3-11 2-12 9-31 9-25 9-21 10-19 8-15 8-13 7-11 9-13 10-14 9-12 10-11 8-11 9-9 2-3h2l2-4h2l2-4h2l2-4h2l2-4 4-4h2l2-4h2l2-4h2l2-4 8-8 8-7 9-8z" fill="#FB5907"/>
<path transform="translate(986,626)" d="m0 0 2 1-1 21-3 16-1 11-1 8-3 9-1 9-2 3-2 12-3 6-1 7-4 11-9 22-9 19-13 23-9 14-3 4h-2l-2 4-8 12h-2l-2 4-15 16-11 10h-2v2l-8 7-22 16-15 10-26 14-19 10-23 10-11 5-13 5-19 8-17 7-16 6-23 10-13 5-35 17-21 11-16 10-9 6-10 7-11 9-10 7-22 22-8 11-9 11-10 16-9 19-3 6-1-4 5-14 2-12 2-3 2-10 2-4 2-7 7-14 6-11 5-9 4-5 3-6 9-12 7-9h2l2-4 12-12 12-9 11-8 6-4 11-7 17-10 32-16 18-8 10-4 15-7 8-3 19-7 13-6 8-3 20-8 15-7 28-12 17-9 16-9 13-8 11-7 11-8 11-9 10-8 8-7 13-13 9-12 9-10 12-18 8-13 8-14 11-24 5-12 3-9 3-8 4-13 6-24z" fill="#A1B40B"/>
</svg>
